<?xml version="1.0" encoding="UTF-8"?>
<svg id="Layer_1" data-name="Layer 1" xmlns="http://www.w3.org/2000/svg" viewBox="0 0 216 173.22">
  <defs>
    <style>
      .cls-1 {
        fill: none;
      }

      .cls-2 {
        fill: #a5cf47;
      }

      .cls-3 {
        fill: #fff;
      }

      .cls-4 {
        fill: #92267c;
      }

      .cls-5 {
        fill: #f88d34;
      }

      .cls-6 {
        fill: #58585a;
      }
    </style>
  </defs>
  <g>
    <path class="cls-3" d="M142.82,63.14l3.51-6.18v-.02h-18.27l-8.29,14.48c-3.75-.78-7.7-1.19-11.77-1.19h-.01c-4.08,0-8.03.43-11.79,1.2l-8.29-14.48h-18.2l3.52,6.2h11.08l5.69,9.94h.01c-11.51,3.85-20.45,11.08-24.34,20.08-1.38,3.18-2.15,6.59-2.15,10.16l88.97.02c0-3.58-.74-7-2.14-10.2-3.92-8.99-12.85-16.22-24.36-20.05h.01s5.68-9.94,5.68-9.94h11.14v-.02Z"/>
    <path class="cls-4" d="M73.22,63.14l-2.89-5.09-.41-.71-.23-.41h-.01s18.21-.01,18.21-.01l8.29,14.48c3.76-.78,7.71-1.2,11.79-1.2V26.26L63.48.57,18.99,26.26v51.31c.87-.03,1.72-.08,2.59-.08,1.22,0,2.41.03,3.61.09.41.02.8.06,1.2.08.79.05,1.58.1,2.36.18.47.05.95.1,1.42.15.7.08,1.4.17,2.08.26.51.07,1.01.15,1.51.23.64.1,1.28.23,1.92.34.52.1,1.04.19,1.55.3.6.12,1.18.27,1.78.41,1.32.32,2.62.65,3.9,1.04.2.06.42.11.62.18.71.21,1.41.46,2.1.7.32.11.64.21.96.33.71.26,1.41.53,2.1.81.27.11.54.21.8.33.73.3,1.44.62,2.15.95.18.08.36.17.54.26,5.17,2.44,9.72,5.49,13.45,9.04,3.9-8.99,12.83-16.23,24.34-20.06l-5.69-9.94s-11.07,0-11.07,0Z"/>
    <path class="cls-2" d="M152.48.57l-44.49,25.69v43.95c4.07,0,8.02.42,11.77,1.19l8.29-14.48h18.27v.03l-3.51,6.18h-11.16l-5.68,9.93c11.51,3.84,20.45,11.06,24.35,20.05,3.71-3.54,8.28-6.59,13.44-9.02.18-.09.36-.17.54-.26.71-.33,1.42-.64,2.15-.95.27-.11.54-.21.81-.33.7-.28,1.38-.55,2.09-.8.32-.11.64-.23.97-.33.7-.24,1.38-.47,2.09-.7.25-.08.51-.15.75-.21,1.23-.36,2.49-.7,3.76-.99.6-.14,1.18-.28,1.78-.41.52-.11,1.04-.2,1.54-.29.64-.12,1.28-.24,1.94-.34.5-.08,1-.16,1.51-.23.7-.1,1.38-.18,2.09-.26.47-.06.95-.1,1.42-.15.79-.08,1.58-.12,2.36-.18.41-.02.8-.06,1.2-.08,1.19-.06,2.4-.09,3.61-.09.88,0,1.74.05,2.61.08V26.29L152.48.57Z"/>
  </g>
  <path class="cls-1" d="M65.66,93.14c-3.71-3.56-8.28-6.61-13.45-9.04,5.15,2.44,9.72,5.49,13.45,9.04Z"/>
  <path class="cls-1" d="M65.66,93.15c3.9-8.99,12.83-16.23,24.34-20.06h-.01c-11.51,3.83-20.44,11.06-24.34,20.05-1.38,3.2-2.15,6.61-2.15,10.17h0c.01-3.57.78-6.97,2.16-10.16Z"/>
  <path class="cls-1" d="M150.32,93.12c3.71-3.54,8.28-6.58,13.44-9.02-5.17,2.44-9.72,5.48-13.44,9.02Z"/>
  <polygon class="cls-5" points="63.48 120.75 63.49 133.89 63.49 129.5 152.48 129.5 152.47 116.46 152.47 120.75 63.48 120.75"/>
  <polygon class="cls-5" points="63.49 103.31 63.49 103.32 63.49 103.35 63.48 112.02 152.47 112.02 152.46 103.33 152.46 103.33 63.49 103.31"/>
  <polygon class="cls-6" points="63.48 112.02 63.48 120.75 63.48 120.75 152.47 120.75 152.47 112.02 152.47 112.02 63.48 112.02"/>
  <polygon class="cls-6" points="63.49 138.2 63.51 138.2 152.48 138.2 152.48 129.5 152.48 129.5 63.49 129.5 63.49 138.2"/>
  <g>
    <circle class="cls-6" cx="96.9" cy="90.22" r="4.33"/>
    <circle class="cls-6" cx="119.04" cy="90.22" r="4.33"/>
  </g>
  <path class="cls-5" d="M196.98,77.58c-.87-.03-1.73-.08-2.61-.08-1.22,0-2.41.03-3.61.09-.41.02-.8.06-1.2.08-.79.05-1.59.1-2.36.18-.47.05-.95.1-1.42.15-.7.08-1.4.17-2.09.26-.51.07-1,.15-1.51.23-.65.1-1.29.23-1.94.34-.52.1-1.04.19-1.54.29-.6.12-1.19.27-1.78.41-1.27.3-2.52.63-3.76.99-.25.08-.51.14-.75.21-.71.21-1.41.46-2.09.7-.33.11-.64.21-.97.33-.71.26-1.41.53-2.09.8-.27.11-.54.21-.81.33-.73.3-1.44.62-2.15.95-.18.08-.36.17-.54.26-5.15,2.44-9.72,5.48-13.44,9.02,1.4,3.21,2.14,6.63,2.14,10.21,5.54-8.05,16.1-13.98,28.57-16.47,4.26-.86,8.75-1.32,13.35-1.32,5.8,0,11.5.75,16.83,2.14l4.08-7.24c-5.8-1.63-11.98-2.62-18.31-2.84Z"/>
  <path class="cls-5" d="M21.58,85.53c4.6,0,9.1.46,13.37,1.32,12.46,2.5,23.02,8.42,28.55,16.45,0-3.57.77-6.98,2.15-10.17-3.71-3.54-8.28-6.59-13.45-9.04-.18-.09-.36-.17-.54-.26-.71-.33-1.43-.64-2.15-.95-.27-.11-.54-.21-.8-.33-.7-.28-1.4-.55-2.1-.81-.32-.11-.64-.21-.96-.33-.7-.24-1.4-.48-2.1-.7-.2-.07-.42-.11-.62-.18-1.28-.38-2.58-.72-3.9-1.04-.59-.14-1.18-.28-1.78-.41-.52-.11-1.04-.2-1.55-.3-.64-.12-1.28-.24-1.92-.34-.5-.08-1-.16-1.51-.23-.69-.1-1.38-.18-2.08-.26-.47-.06-.95-.1-1.42-.15-.79-.08-1.58-.12-2.36-.18-.41-.02-.8-.06-1.2-.08-1.19-.06-2.4-.09-3.61-.09-.87,0-1.73.05-2.59.08-6.3.21-12.48,1.19-18.27,2.85l4.08,7.24c5.31-1.36,10.99-2.12,16.78-2.12Z"/>
  <path class="cls-5" d="M159.21,144.62c-2.63-1.97-4.88-4.13-6.72-6.41h0s-88.99-.01-88.99-.01c-1.85,2.3-4.1,4.46-6.73,6.43-4.49,3.35-9.76,5.94-15.53,7.7l4.39,7.79c1.24-.42,2.45-.84,3.63-1.33,3.92-1.59,7.54-3.52,10.8-5.74,1.96-1.33,3.79-2.77,5.48-4.3.14-.12.25-.25.37-.37l42.06,24.28,42.06-24.28c.12.12.25.25.37.36,1.69,1.53,3.52,2.96,5.48,4.3,3.26,2.22,6.9,4.15,10.8,5.74,1.19.48,2.41.92,3.66,1.34l4.39-7.79c-5.76-1.76-11.05-4.34-15.54-7.7Z"/>
</svg>